<?xml version="1.0" standalone="no"?>
<!DOCTYPE svg PUBLIC "-//W3C//DTD SVG 20010904//EN"
 "http://www.w3.org/TR/2001/REC-SVG-20010904/DTD/svg10.dtd">
<svg version="1.0" xmlns="http://www.w3.org/2000/svg"
 width="840.000000pt" height="859.000000pt" viewBox="0 0 840.000000 859.000000"
 preserveAspectRatio="xMidYMid meet">

<g transform="translate(0.000000,859.000000) scale(0.100000,-0.100000)"
fill="#000000" stroke="none">
<path d="M3760 8541 c0 -6 5 -13 10 -16 6 -3 10 -22 10 -41 0 -19 5 -34 10
-34 6 0 10 -16 10 -35 0 -19 5 -35 10 -35 6 0 10 -22 10 -50 0 -27 5 -50 10
-50 6 0 10 -78 10 -214 0 -133 -4 -217 -10 -221 -5 -3 -10 -28 -10 -56 0 -27
-4 -49 -10 -49 -5 0 -10 -13 -10 -29 0 -17 -4 -33 -10 -36 -5 -3 -10 -22 -10
-41 0 -19 -4 -34 -10 -34 -5 0 -10 -11 -10 -24 0 -14 -4 -28 -10 -31 -5 -3
-10 -15 -10 -26 0 -10 -4 -19 -10 -19 -5 0 -10 -11 -10 -24 0 -14 -4 -28 -10
-31 -5 -3 -10 -15 -10 -26 0 -10 -4 -19 -10 -19 -5 0 -10 -9 -10 -20 0 -11 -4
-20 -10 -20 -5 0 -10 -6 -10 -14 0 -13 -39 -95 -50 -106 -3 -3 -16 -27 -30
-55 -14 -27 -27 -52 -30 -55 -3 -3 -16 -25 -30 -50 -13 -25 -28 -49 -32 -55
-5 -5 -24 -35 -43 -65 -19 -30 -39 -60 -45 -67 -5 -7 -15 -24 -22 -38 -6 -14
-15 -25 -19 -25 -4 0 -10 -8 -13 -17 -4 -10 -20 -33 -36 -52 -17 -18 -30 -37
-30 -41 0 -4 -11 -20 -25 -36 -14 -16 -25 -35 -25 -41 0 -7 -3 -13 -8 -13 -4
0 -18 -18 -32 -40 -14 -22 -27 -40 -30 -40 -3 0 -16 -18 -30 -40 -14 -22 -28
-40 -32 -40 -5 0 -8 -7 -8 -15 0 -8 -4 -15 -10 -15 -5 0 -10 -7 -10 -15 0 -8
-4 -15 -10 -15 -5 0 -10 -6 -10 -13 0 -7 -9 -19 -20 -27 -11 -8 -20 -20 -20
-27 0 -7 -4 -13 -10 -13 -5 0 -10 -7 -10 -15 0 -8 -4 -15 -10 -15 -5 0 -10 -7
-10 -15 0 -8 -4 -15 -10 -15 -5 0 -10 -6 -10 -13 0 -7 -9 -19 -20 -27 -11 -8
-20 -21 -20 -30 0 -9 -9 -22 -20 -30 -11 -8 -20 -19 -20 -25 0 -5 -11 -23 -25
-39 -13 -16 -27 -37 -30 -47 -4 -11 -10 -19 -14 -19 -5 0 -14 -13 -21 -30 -7
-16 -16 -30 -21 -30 -4 0 -11 -9 -14 -20 -3 -11 -12 -26 -18 -32 -7 -7 -23
-33 -37 -58 -13 -25 -28 -49 -32 -55 -32 -37 -238 -429 -238 -451 0 -8 -4 -14
-10 -14 -5 0 -10 -7 -10 -15 0 -8 -4 -24 -10 -35 -6 -11 -14 -29 -20 -40 -6
-11 -10 -27 -10 -35 0 -8 -4 -15 -10 -15 -5 0 -10 -13 -10 -30 0 -16 -3 -30
-7 -30 -5 0 -19 -35 -32 -78 -13 -42 -28 -81 -33 -87 -4 -5 -8 -21 -8 -36 0
-15 -4 -31 -10 -34 -5 -3 -10 -19 -10 -35 0 -16 -4 -32 -10 -35 -5 -3 -10 -24
-10 -46 0 -21 -4 -39 -10 -39 -5 0 -10 -22 -10 -50 0 -27 -4 -50 -10 -50 -5 0
-10 -24 -10 -54 0 -30 -4 -58 -10 -61 -5 -3 -10 -42 -10 -86 0 -46 -4 -79 -10
-79 -6 0 -10 -95 -10 -265 0 -170 4 -265 10 -265 6 0 10 -33 10 -80 0 -47 4
-80 10 -80 6 0 10 -30 10 -70 0 -40 4 -70 10 -70 6 0 10 -22 10 -50 0 -27 5
-50 10 -50 6 0 10 -20 10 -44 0 -25 5 -48 10 -51 6 -3 10 -21 10 -40 0 -19 5
-37 10 -40 6 -3 10 -19 10 -35 0 -16 5 -32 10 -35 6 -3 10 -22 10 -41 0 -19 5
-34 10 -34 6 0 10 -13 10 -29 0 -17 5 -33 10 -36 6 -3 10 -17 10 -30 0 -13 5
-27 10 -30 6 -3 10 -17 10 -30 0 -13 5 -27 10 -30 6 -3 10 -17 10 -30 0 -13 4
-26 8 -29 4 -3 14 -28 22 -55 7 -28 16 -51 20 -51 3 0 12 -21 19 -47 8 -27 17
-52 21 -58 4 -5 14 -29 23 -52 l17 -43 -25 0 c-14 0 -25 5 -25 10 0 6 -7 10
-15 10 -8 0 -15 5 -15 10 0 6 -7 10 -15 10 -8 0 -15 5 -15 10 0 6 -6 10 -13
10 -26 0 -287 255 -287 280 0 6 -4 10 -10 10 -5 0 -10 7 -10 15 0 8 -4 15 -10
15 -5 0 -10 7 -10 15 0 8 -4 15 -10 15 -5 0 -10 7 -10 15 0 8 -4 15 -10 15 -5
0 -10 7 -10 15 0 8 -4 15 -10 15 -5 0 -10 7 -10 15 0 8 -4 15 -10 15 -5 0 -10
7 -10 15 0 8 -4 15 -10 15 -5 0 -10 9 -10 20 0 11 -4 20 -10 20 -5 0 -10 9
-10 20 0 11 -4 20 -10 20 -5 0 -10 9 -10 20 0 11 -4 20 -10 20 -5 0 -10 9 -10
20 0 11 -4 20 -10 20 -5 0 -10 9 -10 20 0 11 -4 20 -10 20 -5 0 -10 9 -10 20
0 11 -4 20 -8 20 -4 0 -14 21 -21 48 -8 26 -17 49 -20 52 -4 3 -17 37 -29 75
-13 39 -27 79 -31 90 -14 34 -60 194 -80 278 -23 97 -31 133 -41 190 -5 31
-14 81 -20 110 -5 28 -12 79 -15 112 -3 33 -9 78 -12 100 l-5 39 -24 -44 c-13
-25 -23 -53 -24 -62 0 -10 -4 -18 -10 -18 -5 0 -10 -9 -10 -20 0 -11 -4 -20
-8 -20 -5 0 -15 -23 -22 -50 -7 -28 -16 -50 -20 -50 -4 0 -13 -23 -20 -51 -8
-27 -18 -52 -22 -55 -4 -3 -8 -18 -8 -35 0 -16 -4 -29 -10 -29 -5 0 -10 -11
-10 -24 0 -14 -5 -28 -10 -31 -5 -3 -10 -22 -10 -41 0 -19 -4 -34 -10 -34 -5
0 -10 -18 -10 -40 0 -22 -4 -40 -10 -40 -5 0 -10 -20 -10 -45 0 -25 -4 -45
-10 -45 -5 0 -10 -22 -10 -50 0 -27 -4 -50 -10 -50 -6 0 -10 -27 -10 -60 0
-33 -4 -60 -10 -60 -6 0 -10 -40 -10 -99 0 -56 -4 -103 -10 -106 -14 -8 -14
-385 0 -385 6 0 10 -40 10 -100 0 -60 4 -100 10 -100 6 0 10 -30 10 -70 0 -40
4 -70 10 -70 6 0 10 -22 10 -50 0 -27 5 -50 10 -50 6 0 10 -20 10 -44 0 -25 4
-48 10 -51 5 -3 10 -22 10 -41 0 -19 5 -34 10 -34 6 0 10 -15 10 -34 0 -19 5
-38 10 -41 6 -3 10 -17 10 -30 0 -13 5 -27 10 -30 6 -3 10 -19 10 -36 0 -16 5
-29 10 -29 6 0 10 -13 10 -30 0 -16 5 -30 10 -30 6 0 10 -9 10 -20 0 -11 4
-28 9 -38 5 -9 14 -30 21 -47 7 -16 16 -38 21 -47 5 -10 9 -25 9 -33 0 -8 5
-15 10 -15 6 0 10 -7 10 -15 0 -9 13 -42 30 -75 16 -33 30 -66 30 -75 0 -8 5
-15 10 -15 6 0 10 -9 10 -19 0 -11 4 -21 9 -23 5 -1 21 -28 36 -58 31 -62 163
-278 182 -298 7 -7 13 -17 13 -22 0 -5 11 -20 25 -34 14 -14 25 -29 25 -33 0
-5 18 -29 40 -53 22 -24 40 -48 40 -52 0 -4 23 -31 50 -59 28 -28 50 -55 50
-60 0 -12 191 -202 260 -259 30 -25 57 -47 60 -50 28 -32 287 -209 338 -231
17 -8 32 -17 32 -21 0 -5 9 -8 20 -8 11 0 20 -4 20 -10 0 -5 9 -10 20 -10 11
0 20 -4 20 -10 0 -5 9 -10 19 -10 11 0 23 -4 26 -10 3 -5 17 -10 30 -10 13 0
25 -4 27 -8 5 -13 107 -44 243 -74 56 -12 482 -15 558 -3 26 4 47 11 47 16 0
5 13 9 29 9 17 0 33 4 36 10 3 5 17 10 31 10 13 0 24 5 24 10 0 6 9 10 20 10
11 0 20 5 20 10 0 6 9 10 20 10 11 0 20 5 20 10 0 6 9 10 20 10 11 0 20 5 20
10 0 6 6 10 13 10 34 0 216 183 217 218 0 6 5 12 10 12 6 0 10 9 10 20 0 11 3
20 8 20 8 0 44 115 62 200 14 63 2 210 -24 310 -4 14 -12 43 -18 65 -30 114
-150 363 -208 432 -6 7 -15 24 -22 38 -6 14 -14 25 -18 25 -4 0 -13 14 -20 30
-7 17 -16 30 -21 30 -4 0 -11 9 -14 20 -4 11 -16 31 -28 43 -12 12 -28 34 -36
50 -8 15 -18 27 -23 27 -4 0 -8 6 -8 13 0 7 -9 23 -20 35 -11 12 -20 26 -20
32 0 5 -4 10 -10 10 -5 0 -10 7 -10 15 0 8 -4 15 -10 15 -5 0 -10 7 -10 15 0
8 -4 15 -10 15 -5 0 -10 7 -10 15 0 8 -4 15 -10 15 -5 0 -10 7 -10 15 0 8 -4
15 -9 15 -5 0 -11 8 -14 18 -8 23 -40 76 -49 80 -5 2 -8 10 -8 18 0 8 -4 14
-10 14 -5 0 -10 9 -10 20 0 11 -4 20 -10 20 -5 0 -10 7 -10 15 0 8 -4 15 -10
15 -5 0 -10 9 -10 20 0 11 -4 20 -10 20 -5 0 -10 7 -10 15 0 8 -4 15 -8 15 -5
0 -14 16 -22 35 -8 19 -17 35 -22 35 -4 0 -8 9 -8 20 0 11 -4 20 -10 20 -5 0
-10 9 -10 20 0 11 -4 20 -10 20 -5 0 -10 9 -10 20 0 11 -4 20 -10 20 -5 0 -10
9 -10 20 0 11 -4 20 -10 20 -5 0 -10 9 -10 20 0 11 -4 20 -10 20 -5 0 -10 9
-10 20 0 11 -4 20 -10 20 -5 0 -10 6 -10 13 0 8 -6 27 -14 43 -8 16 -22 47
-31 69 -10 22 -23 54 -30 70 -32 74 -116 322 -145 431 -57 209 -87 404 -106
682 -9 129 15 415 46 542 4 19 13 60 20 90 17 82 77 265 111 345 63 143 93
205 101 205 4 0 8 9 8 20 0 11 4 20 8 20 4 0 19 22 33 50 13 27 27 50 30 50 4
0 12 14 19 30 7 17 16 30 21 30 5 0 9 6 9 13 0 7 8 22 18 33 10 10 29 35 42
54 14 19 34 45 45 56 30 32 55 63 55 70 0 3 23 27 50 54 28 27 50 52 50 55 0
7 52 57 126 120 25 22 59 52 75 68 16 15 33 27 39 27 5 0 10 5 10 10 0 6 7 10
16 10 12 0 14 -5 9 -17 -4 -10 -10 -28 -12 -40 -3 -13 -8 -23 -12 -23 -4 0
-14 -22 -21 -50 -7 -27 -17 -50 -22 -50 -4 0 -8 -11 -8 -24 0 -14 -4 -28 -10
-31 -5 -3 -10 -17 -10 -30 0 -13 -4 -27 -10 -30 -5 -3 -10 -19 -10 -36 0 -16
-4 -29 -10 -29 -5 0 -10 -16 -10 -35 0 -19 -4 -35 -10 -35 -5 0 -10 -18 -10
-40 0 -22 -4 -40 -10 -40 -5 0 -10 -18 -10 -39 0 -22 -4 -43 -10 -46 -5 -3
-10 -31 -10 -61 0 -30 -4 -54 -10 -54 -6 0 -10 -47 -10 -120 0 -73 -4 -120
-10 -120 -5 0 -10 -25 -10 -55 0 -30 5 -55 10 -55 6 0 10 -40 10 -99 0 -56 4
-103 10 -106 6 -3 10 -31 10 -61 0 -30 5 -54 10 -54 6 0 10 -18 10 -40 0 -22
5 -40 10 -40 6 0 10 -10 10 -22 0 -25 22 -93 33 -104 4 -4 7 -18 7 -31 0 -12
5 -23 10 -23 6 0 10 -13 10 -30 0 -16 5 -30 10 -30 6 0 10 -9 10 -20 0 -11 5
-20 10 -20 6 0 10 -9 10 -20 0 -11 5 -20 10 -20 6 0 10 -9 10 -20 0 -11 5 -20
10 -20 6 0 10 -9 10 -20 0 -11 5 -20 10 -20 6 0 10 -9 10 -20 0 -11 3 -20 8
-20 4 0 13 -15 21 -32 23 -53 184 -287 236 -344 5 -6 17 -22 25 -34 8 -12 36
-45 63 -72 26 -27 47 -53 47 -58 0 -5 80 -90 178 -188 415 -418 722 -738 722
-753 0 -6 18 -28 40 -49 22 -21 40 -43 40 -49 0 -6 5 -11 10 -11 6 0 10 -6 10
-13 0 -7 9 -19 20 -27 11 -8 20 -20 20 -27 0 -7 5 -13 10 -13 6 0 10 -5 10
-10 0 -6 9 -20 20 -32 11 -12 20 -28 20 -35 0 -7 5 -13 10 -13 6 0 10 -7 10
-15 0 -8 5 -15 10 -15 6 0 10 -7 10 -15 0 -8 5 -15 10 -15 6 0 10 -7 10 -15 0
-8 5 -15 10 -15 6 0 10 -9 10 -20 0 -11 5 -20 10 -20 6 0 10 -9 10 -20 0 -11
5 -20 10 -20 6 0 10 -9 10 -20 0 -11 5 -20 10 -20 6 0 10 -9 10 -20 0 -11 5
-20 10 -20 6 0 10 -10 10 -23 0 -13 4 -27 8 -33 8 -9 40 -109 61 -189 23 -93
34 -253 23 -342 -25 -189 -30 -219 -42 -248 -4 -11 -13 -40 -20 -65 -6 -25
-15 -52 -19 -60 -4 -8 -14 -36 -22 -63 -15 -52 -36 -62 -44 -20 -4 16 -10 36
-16 45 -5 10 -9 27 -9 37 0 11 -4 23 -10 26 -5 3 -10 17 -10 30 0 13 -4 27
-10 30 -5 3 -10 15 -10 26 0 10 -4 19 -10 19 -5 0 -10 11 -10 24 0 14 -4 28
-10 31 -5 3 -10 15 -10 26 0 10 -4 19 -10 19 -5 0 -10 9 -10 20 0 11 -4 20
-10 20 -5 0 -10 11 -10 25 0 14 -4 25 -10 25 -5 0 -10 9 -10 20 0 11 -4 20
-10 20 -5 0 -10 9 -10 20 0 11 -4 20 -10 20 -5 0 -10 7 -10 15 0 8 -4 15 -10
15 -5 0 -10 7 -10 15 0 8 -4 15 -10 15 -5 0 -10 9 -10 20 0 11 -4 20 -10 20
-5 0 -10 8 -10 18 0 10 -9 24 -20 32 -11 8 -20 21 -20 30 0 9 -9 22 -20 30
-11 8 -20 20 -20 27 0 7 -13 27 -30 45 -16 17 -30 35 -30 39 0 11 -84 103
-185 203 -66 66 -122 111 -260 213 -25 18 -71 45 -87 50 -10 3 -18 9 -18 14 0
5 -9 9 -20 9 -11 0 -20 5 -20 10 0 6 -9 10 -20 10 -11 0 -20 5 -20 10 0 6 -9
10 -20 10 -11 0 -20 5 -20 10 0 6 -9 10 -20 10 -11 0 -20 4 -20 8 0 4 -21 14
-47 21 -27 8 -56 19 -65 25 -18 11 -39 0 -22 -12 6 -4 39 -50 74 -102 35 -52
67 -96 72 -98 4 -2 8 -10 8 -18 0 -8 5 -14 10 -14 6 0 10 -7 10 -15 0 -9 9
-25 20 -37 11 -12 20 -28 20 -35 0 -7 5 -13 10 -13 6 0 10 -9 10 -20 0 -11 5
-20 10 -20 6 0 10 -7 10 -15 0 -8 5 -15 10 -15 6 0 10 -7 10 -15 0 -8 5 -15
10 -15 6 0 10 -9 10 -20 0 -11 5 -20 10 -20 6 0 10 -9 10 -20 0 -11 5 -20 10
-20 6 0 10 -9 10 -20 0 -11 5 -20 10 -20 6 0 10 -9 10 -20 0 -11 5 -20 10 -20
6 0 10 -9 10 -20 0 -11 5 -20 10 -20 6 0 10 -6 10 -13 0 -7 9 -32 20 -55 11
-22 20 -48 20 -57 0 -8 5 -15 10 -15 6 0 10 -10 10 -23 0 -13 4 -27 8 -33 5
-5 14 -29 21 -54 7 -25 17 -53 22 -62 5 -10 9 -29 9 -42 0 -14 5 -28 10 -31 6
-3 10 -21 10 -39 0 -17 4 -36 9 -42 23 -23 38 -368 21 -469 -10 -64 -39 -171
-59 -220 -15 -37 -56 -120 -61 -125 -3 -3 -12 -18 -20 -35 -8 -16 -19 -35 -25
-41 -5 -6 -21 -26 -35 -44 -14 -18 -35 -44 -47 -56 -13 -13 -23 -26 -23 -30 0
-8 -60 -64 -69 -64 -4 0 -28 -19 -52 -42 -25 -24 -57 -49 -72 -57 -15 -8 -27
-18 -27 -23 0 -4 -7 -8 -15 -8 -8 0 -15 -4 -15 -10 0 -5 25 -10 55 -10 30 0
55 5 55 10 0 6 27 10 60 10 33 0 60 4 60 10 0 6 23 10 50 10 28 0 50 5 50 10
0 6 18 10 39 10 22 0 43 4 46 10 3 5 24 10 45 10 21 0 42 5 45 10 3 6 22 10
41 10 19 0 34 5 34 10 0 6 15 10 34 10 19 0 38 5 41 10 3 6 17 10 30 10 13 0
27 5 30 10 3 6 19 10 36 10 16 0 29 5 29 10 0 6 14 10 30 10 17 0 30 5 30 10
0 6 14 10 30 10 17 0 30 4 30 8 0 5 23 15 50 22 28 7 50 16 50 20 0 4 23 13
50 20 28 7 50 17 50 22 0 4 9 8 20 8 11 0 20 5 20 10 0 6 7 10 16 10 34 0 401
202 470 259 5 4 21 14 34 21 13 7 34 23 47 36 13 13 28 24 33 24 4 0 27 18 50
40 23 22 46 40 51 40 12 0 256 245 299 300 19 25 42 53 51 63 33 37 129 175
129 186 0 6 4 11 9 11 5 0 11 8 14 18 6 17 37 72 47 82 11 11 70 134 70 146 0
8 5 14 10 14 6 0 10 9 10 20 0 11 5 20 10 20 6 0 10 9 10 20 0 11 5 20 10 20
6 0 10 11 10 24 0 14 4 28 10 31 5 3 10 15 10 26 0 10 5 19 10 19 6 0 10 14
10 30 0 17 5 30 10 30 6 0 10 13 10 29 0 17 5 33 10 36 6 3 10 19 10 35 0 16
5 32 10 35 6 3 10 22 10 41 0 19 5 34 10 34 6 0 10 18 10 40 0 22 5 40 10 40
6 0 10 24 10 54 0 30 5 58 10 61 6 3 10 37 10 76 0 39 4 69 10 69 6 0 10 97
10 270 0 173 -4 270 -10 270 -6 0 -10 32 -10 75 0 43 -4 75 -10 75 -5 0 -10
25 -10 55 0 30 -4 55 -10 55 -5 0 -10 20 -10 44 0 25 -4 48 -10 51 -5 3 -10
21 -10 40 0 19 -4 37 -10 40 -5 3 -10 22 -10 41 0 19 -4 34 -10 34 -5 0 -10
13 -10 29 0 17 -4 33 -10 36 -5 3 -10 17 -10 30 0 13 -4 27 -10 30 -5 3 -10
17 -10 31 0 13 -4 24 -8 24 -4 0 -14 21 -22 48 -7 26 -22 65 -33 87 -11 22
-23 49 -27 60 -16 43 -130 266 -141 275 -3 3 -12 16 -19 30 -18 35 -102 162
-117 178 -6 6 -15 21 -18 32 -3 11 -10 20 -14 20 -5 0 -14 14 -21 30 -7 17
-15 30 -19 30 -3 0 -17 23 -30 50 -14 28 -27 50 -30 50 -4 0 -17 25 -31 55
-14 30 -28 55 -32 55 -5 0 -8 9 -8 20 0 11 -3 20 -7 20 -9 0 -33 49 -33 67 0
7 -4 13 -10 13 -5 0 -10 9 -10 20 0 11 -4 20 -10 20 -5 0 -10 9 -10 19 0 11
-4 23 -10 26 -5 3 -10 15 -10 26 0 10 -4 19 -10 19 -5 0 -10 11 -10 25 0 14
-4 25 -10 25 -5 0 -10 14 -10 30 0 17 -4 30 -10 30 -5 0 -10 9 -10 20 0 11 -4
20 -10 20 -5 0 -10 13 -10 29 0 17 -4 33 -10 36 -5 3 -10 17 -10 31 0 13 -4
24 -10 24 -5 0 -10 18 -10 40 0 22 -4 40 -9 40 -9 0 -14 22 -26 105 -4 22 -10
49 -15 60 -10 22 -18 76 -26 170 -3 33 -10 64 -15 70 -13 13 -12 572 1 580 6
3 10 33 10 65 0 32 5 62 10 65 6 3 10 28 10 55 0 27 5 52 10 55 6 3 10 21 10
40 0 19 5 37 10 40 6 3 10 19 10 35 0 16 4 32 10 35 6 3 10 19 10 35 0 15 6
30 13 33 6 2 9 8 4 12 -4 5 -13 3 -19 -3 -7 -7 -20 -12 -30 -12 -10 0 -27 -4
-38 -10 -11 -5 -29 -14 -40 -20 -11 -5 -27 -10 -35 -10 -8 0 -15 -4 -15 -10 0
-5 -9 -10 -20 -10 -11 0 -20 -4 -20 -10 0 -5 -7 -10 -15 -10 -15 0 -55 -19
-65 -31 -3 -3 -20 -12 -37 -20 -18 -8 -33 -17 -33 -20 0 -4 -13 -12 -30 -19
-16 -7 -30 -15 -30 -19 0 -4 -13 -15 -30 -24 -16 -10 -35 -23 -42 -30 -7 -7
-25 -20 -39 -29 -53 -34 -249 -221 -249 -237 0 -6 -4 -11 -10 -11 -5 0 -10 -5
-10 -10 0 -6 -13 -24 -30 -42 -16 -17 -30 -35 -30 -41 0 -5 -8 -17 -18 -26 -9
-9 -23 -28 -31 -43 -8 -16 -18 -28 -23 -28 -4 0 -8 -9 -8 -20 0 -11 -4 -20 -8
-20 -8 0 -97 -181 -122 -247 -7 -18 -16 -33 -20 -33 -5 0 -11 136 -14 303 -6
359 -13 432 -75 772 -24 133 -116 447 -161 553 -6 12 -14 32 -19 45 -29 71
-116 247 -123 247 -4 0 -8 9 -8 20 0 11 -4 20 -10 20 -5 0 -10 9 -10 20 0 11
-4 20 -10 20 -5 0 -10 8 -10 18 0 10 -9 24 -20 32 -11 8 -20 22 -20 32 0 10
-4 18 -10 18 -5 0 -10 7 -10 15 0 8 -4 15 -10 15 -5 0 -10 7 -10 15 0 8 -4 15
-10 15 -5 0 -10 7 -10 15 0 8 -4 15 -10 15 -5 0 -10 6 -10 13 0 7 -9 19 -20
27 -11 8 -20 20 -20 27 0 7 -4 13 -10 13 -5 0 -10 5 -10 10 0 6 -10 21 -22 34
-13 13 -46 50 -74 82 -63 73 -127 136 -200 200 -30 27 -69 61 -86 77 -17 15
-43 35 -59 44 -16 10 -29 21 -29 25 0 4 -7 8 -15 8 -8 0 -15 5 -15 10 0 6 -5
10 -10 10 -6 0 -20 9 -32 20 -12 11 -28 20 -35 20 -7 0 -13 5 -13 10 0 6 -7
10 -15 10 -8 0 -15 5 -15 10 0 6 -7 10 -15 10 -8 0 -15 5 -15 10 0 6 -9 10
-20 10 -11 0 -20 5 -20 10 0 6 -9 10 -20 10 -11 0 -20 5 -20 10 0 6 -4 10 -10
10 -5 0 -10 -4 -10 -9z m1884 -3483 c3 -29 10 -82 16 -118 6 -36 13 -83 16
-105 3 -22 10 -44 15 -49 5 -6 9 -25 9 -42 0 -18 5 -36 10 -39 6 -3 10 -19 10
-36 0 -16 5 -29 10 -29 6 0 10 -11 10 -24 0 -14 5 -28 10 -31 6 -3 10 -17 10
-30 0 -13 5 -27 10 -30 6 -3 10 -15 10 -26 0 -10 5 -19 10 -19 6 0 10 -7 10
-15 0 -17 126 -273 162 -328 13 -20 34 -55 48 -78 14 -24 55 -89 93 -146 37
-57 67 -108 67 -113 0 -6 4 -10 8 -10 5 0 15 -12 23 -27 8 -16 16 -30 19 -33
10 -10 41 -65 47 -82 3 -10 9 -18 14 -18 5 0 9 -9 9 -20 0 -11 5 -20 10 -20 6
0 10 -9 10 -20 0 -11 5 -20 10 -20 6 0 10 -9 10 -20 0 -11 5 -20 10 -20 6 0
10 -9 10 -20 0 -11 5 -20 10 -20 6 0 10 -9 10 -20 0 -11 5 -20 10 -20 6 0 10
-13 10 -30 0 -16 5 -30 10 -30 6 0 10 -11 10 -24 0 -14 5 -28 10 -31 6 -3 10
-17 10 -30 0 -13 5 -27 10 -30 6 -3 10 -19 10 -35 0 -16 5 -32 10 -35 6 -3 10
-21 10 -40 0 -19 5 -37 10 -40 6 -3 10 -25 10 -49 0 -23 4 -46 9 -52 10 -9 21
-152 21 -264 0 -112 -11 -255 -21 -264 -5 -6 -9 -29 -9 -52 0 -24 -4 -46 -10
-49 -5 -3 -10 -21 -10 -40 0 -19 -4 -37 -10 -40 -5 -3 -10 -24 -10 -46 0 -21
-4 -39 -10 -39 -5 0 -10 -13 -10 -30 0 -16 -4 -30 -10 -30 -5 0 -10 -11 -10
-25 0 -14 -4 -25 -10 -25 -5 0 -10 -11 -10 -25 0 -14 -4 -25 -10 -25 -5 0 -10
-13 -10 -30 0 -16 -4 -30 -10 -30 -5 0 -10 -7 -10 -16 0 -15 -23 -44 -34 -44
-3 0 -6 14 -6 30 0 17 5 30 10 30 6 0 10 32 10 75 0 43 -4 75 -10 75 -6 0 -10
33 -10 80 0 47 -4 80 -10 80 -5 0 -10 18 -10 39 0 22 -4 43 -10 46 -5 3 -10
22 -10 41 0 19 -4 34 -10 34 -5 0 -10 11 -10 24 0 14 -4 28 -10 31 -5 3 -10
15 -10 26 0 10 -4 19 -10 19 -5 0 -10 9 -10 20 0 11 -4 20 -10 20 -5 0 -10 9
-10 20 0 11 -4 20 -10 20 -5 0 -10 9 -10 20 0 11 -4 20 -10 20 -5 0 -10 8 -10
18 0 10 -9 24 -20 32 -11 8 -20 21 -20 30 0 9 -9 22 -20 30 -11 8 -20 19 -20
25 0 6 -8 20 -17 31 -10 10 -30 35 -45 56 -15 20 -33 42 -40 50 -7 7 -35 40
-63 73 -27 33 -52 62 -55 65 -3 3 -21 25 -40 50 -19 25 -42 52 -50 60 -9 8
-27 31 -40 50 -13 19 -30 41 -37 48 -7 7 -20 26 -30 42 -9 17 -21 30 -25 30
-4 0 -8 8 -8 18 0 10 -9 24 -20 32 -11 8 -20 22 -20 32 0 10 -4 18 -10 18 -5
0 -10 9 -10 20 0 11 -4 20 -10 20 -5 0 -10 7 -10 15 0 8 -4 15 -10 15 -5 0
-10 9 -10 20 0 11 -4 20 -10 20 -5 0 -10 11 -10 25 0 14 -4 25 -10 25 -5 0
-10 9 -10 20 0 11 -4 20 -10 20 -5 0 -10 14 -10 30 0 17 -4 30 -10 30 -5 0
-10 14 -10 30 0 17 -4 30 -10 30 -5 0 -10 20 -10 45 0 25 -4 45 -10 45 -5 0
-10 22 -10 49 0 28 -4 53 -10 56 -6 4 -10 85 -10 211 0 129 4 204 10 204 6 0
10 27 10 60 0 33 4 60 10 60 6 0 10 20 10 45 0 25 5 45 10 45 6 0 10 15 10 34
0 19 5 38 10 41 6 3 10 19 10 36 0 16 5 29 10 29 6 0 10 14 10 30 0 17 5 30
10 30 6 0 10 11 10 24 0 14 5 28 10 31 6 3 10 15 10 26 0 10 5 19 10 19 6 0
10 11 10 25 0 14 5 25 10 25 6 0 10 11 10 25 0 14 5 25 10 25 6 0 10 9 10 20
0 11 5 20 10 20 6 0 10 7 10 15 0 16 20 44 32 45 3 0 9 -24 12 -52z"/>
</g>
</svg>
